<svg width="1440" height="737" viewBox="0 0 1440 737" fill="none" xmlns="http://www.w3.org/2000/svg">
<path d="M75 532.333C1 527.133 -35.8333 584.166 -45 613.333V836.833L1399.5 865.833L1495 764.833C1493.5 699.666 1491.4 565.433 1495 549.833C1499.5 530.333 1467 549.833 1424.5 583.333C1382 616.833 1268.5 549.833 1182 549.833C1095.5 549.833 1114.5 596.833 990 613.333C865.5 629.833 885.5 598.333 779.5 596.833C673.5 595.333 615.5 624.333 538 629.833C460.5 635.333 469 566.333 404.5 549.833C340 533.333 246 591.333 208.5 583.333C171 575.333 167.5 538.833 75 532.333Z" fill="#3C5351"/>
<path d="M170 593.581C64 581.181 -5.5 634.081 -27 662.081C-27 673.281 -44.3333 672.081 -53 670.081L-27 825.581L1465 815.081V701.081C1469.33 690.748 1475.4 674.681 1465 693.081C1452 716.081 1402.5 662.081 1347 620.581C1291.5 579.082 1182.5 576.581 1111 609.081C1039.5 641.581 1008.5 685.581 928.5 670.081C848.5 654.581 769 640.081 661.5 635.081C554 630.081 511 688.081 406 685.581C301 683.081 302.5 609.081 170 593.581Z" fill="#2C4341"/>
<path d="M214 339L201 352" stroke="#718C8A" stroke-width="4" stroke-linecap="round"/>
<path d="M201 339L213.939 351.643" stroke="#718C8A" stroke-width="4" stroke-linecap="round"/>
<path d="M406.879 58.8789L393.879 71.8789" stroke="#8CABA8" stroke-width="4" stroke-linecap="round"/>
<path d="M393.879 58.8789L406.818 71.5216" stroke="#8CABA8" stroke-width="4" stroke-linecap="round"/>
<path d="M505.879 694.879L492.879 707.879" stroke="#4D7672" stroke-width="4" stroke-linecap="round"/>
<path d="M492.879 694.879L505.818 707.522" stroke="#4D7672" stroke-width="4" stroke-linecap="round"/>
<path d="M1352.88 402.879L1339.88 415.879" stroke="#3D7873" stroke-width="4" stroke-linecap="round"/>
<path d="M1339.88 402.879L1352.82 415.522" stroke="#3D7873" stroke-width="4" stroke-linecap="round"/>
<path d="M1150.88 5.87888L1137.88 18.8789" stroke="#7BB3AE" stroke-width="4" stroke-linecap="round"/>
<path d="M1137.88 5.87888L1150.82 18.5216" stroke="#7BB3AE" stroke-width="4" stroke-linecap="round"/>
</svg>
