<svg width="363" height="75" viewBox="0 0 363 75" fill="none" xmlns="http://www.w3.org/2000/svg">
<path d="M103.901 29.704C103.577 29.344 102.893 28.876 101.849 28.3C100.805 27.688 99.5455 27.148 98.0695 26.68C96.6295 26.176 95.1355 25.924 93.5875 25.924C89.5195 25.924 87.4855 27.364 87.4855 30.244C87.4855 31.288 87.8095 32.116 88.4575 32.728C89.1055 33.34 90.0775 33.862 91.3735 34.294C92.6695 34.726 94.2895 35.194 96.2335 35.698C98.7535 36.346 100.931 37.102 102.767 37.966C104.639 38.83 106.061 39.982 107.033 41.422C108.041 42.826 108.545 44.698 108.545 47.038C108.545 49.774 107.879 51.988 106.547 53.68C105.251 55.336 103.523 56.542 101.363 57.298C99.2035 58.054 96.8635 58.432 94.3435 58.432C91.4635 58.432 88.6015 58 85.7575 57.136C82.9495 56.236 80.4475 55.012 78.2515 53.464L81.5455 47.038C81.8695 47.362 82.4455 47.794 83.2735 48.334C84.1015 48.838 85.1095 49.36 86.2975 49.9C87.4855 50.404 88.7815 50.836 90.1855 51.196C91.5895 51.556 93.0115 51.736 94.4515 51.736C98.5555 51.736 100.607 50.422 100.607 47.794C100.607 46.678 100.193 45.778 99.3655 45.094C98.5375 44.41 97.3675 43.834 95.8555 43.366C94.3795 42.898 92.6515 42.376 90.6715 41.8C88.2235 41.116 86.1895 40.36 84.5695 39.532C82.9855 38.668 81.7975 37.606 81.0055 36.346C80.2135 35.05 79.8175 33.412 79.8175 31.432C79.8175 28.804 80.4295 26.608 81.6535 24.844C82.9135 23.044 84.6055 21.694 86.7295 20.794C88.8535 19.858 91.2115 19.39 93.8035 19.39C96.4675 19.39 98.9515 19.822 101.255 20.686C103.559 21.55 105.539 22.54 107.195 23.656L103.901 29.704ZM139.614 58H132.378V42.124C132.378 39.856 131.982 38.2 131.19 37.156C130.398 36.112 129.3 35.59 127.896 35.59C126.924 35.59 125.934 35.842 124.926 36.346C123.954 36.85 123.072 37.552 122.28 38.452C121.488 39.316 120.912 40.324 120.552 41.476V58H113.316V29.704H119.85V34.942C120.894 33.178 122.406 31.792 124.386 30.784C126.366 29.74 128.598 29.218 131.082 29.218C132.846 29.218 134.286 29.542 135.402 30.19C136.518 30.802 137.382 31.648 137.994 32.728C138.606 33.772 139.02 34.96 139.236 36.292C139.488 37.624 139.614 38.974 139.614 40.342V58ZM145.906 25.762V18.58H153.142V25.762H145.906ZM145.906 58V29.704H153.142V58H145.906ZM176.626 58.54C174.394 58.54 172.45 58.036 170.794 57.028C169.138 56.02 167.842 54.688 166.906 53.032V69.502H159.67V29.704H165.988V34.564C167.032 32.908 168.382 31.612 170.038 30.676C171.73 29.704 173.638 29.218 175.762 29.218C178.318 29.218 180.586 29.884 182.566 31.216C184.546 32.512 186.112 34.276 187.264 36.508C188.416 38.704 188.992 41.134 188.992 43.798C188.992 46.57 188.452 49.072 187.372 51.304C186.328 53.5 184.87 55.264 182.998 56.596C181.162 57.892 179.038 58.54 176.626 58.54ZM174.196 52.384C175.672 52.384 176.95 51.988 178.03 51.196C179.146 50.368 180.01 49.306 180.622 48.01C181.27 46.678 181.594 45.274 181.594 43.798C181.594 42.214 181.252 40.792 180.568 39.532C179.884 38.236 178.948 37.228 177.76 36.508C176.608 35.752 175.276 35.374 173.764 35.374C172.396 35.374 171.028 35.824 169.66 36.724C168.292 37.624 167.374 38.758 166.906 40.126V46.768C167.554 48.352 168.544 49.684 169.876 50.764C171.208 51.844 172.648 52.384 174.196 52.384ZM210.851 58.54C208.619 58.54 206.675 58.036 205.019 57.028C203.363 56.02 202.067 54.688 201.131 53.032V69.502H193.895V29.704H200.213V34.564C201.257 32.908 202.607 31.612 204.263 30.676C205.955 29.704 207.863 29.218 209.987 29.218C212.543 29.218 214.811 29.884 216.791 31.216C218.771 32.512 220.337 34.276 221.489 36.508C222.641 38.704 223.217 41.134 223.217 43.798C223.217 46.57 222.677 49.072 221.597 51.304C220.553 53.5 219.095 55.264 217.223 56.596C215.387 57.892 213.263 58.54 210.851 58.54ZM208.421 52.384C209.897 52.384 211.175 51.988 212.255 51.196C213.371 50.368 214.235 49.306 214.847 48.01C215.495 46.678 215.819 45.274 215.819 43.798C215.819 42.214 215.477 40.792 214.793 39.532C214.109 38.236 213.173 37.228 211.985 36.508C210.833 35.752 209.501 35.374 207.989 35.374C206.621 35.374 205.253 35.824 203.885 36.724C202.517 37.624 201.599 38.758 201.131 40.126V46.768C201.779 48.352 202.769 49.684 204.101 50.764C205.433 51.844 206.873 52.384 208.421 52.384ZM241.241 58.54C238.181 58.54 235.535 57.874 233.303 56.542C231.107 55.21 229.397 53.446 228.173 51.25C226.949 49.018 226.337 46.606 226.337 44.014C226.337 41.35 226.931 38.902 228.119 36.67C229.343 34.402 231.071 32.602 233.303 31.27C235.535 29.902 238.199 29.218 241.295 29.218C244.391 29.218 247.037 29.902 249.233 31.27C251.429 32.602 253.103 34.384 254.255 36.616C255.443 38.812 256.037 41.188 256.037 43.744C256.037 44.68 255.983 45.49 255.875 46.174H234.005C234.185 48.37 234.995 50.098 236.435 51.358C237.911 52.618 239.603 53.248 241.511 53.248C242.951 53.248 244.301 52.906 245.561 52.222C246.857 51.502 247.739 50.566 248.207 49.414L254.417 51.142C253.373 53.302 251.699 55.084 249.395 56.488C247.091 57.856 244.373 58.54 241.241 58.54ZM233.843 41.584H248.639C248.423 39.46 247.613 37.75 246.209 36.454C244.841 35.122 243.167 34.456 241.187 34.456C239.243 34.456 237.569 35.122 236.165 36.454C234.797 37.75 234.023 39.46 233.843 41.584ZM277.138 56.542C276.166 56.974 274.96 57.406 273.52 57.838C272.116 58.27 270.658 58.486 269.146 58.486C267.814 58.486 266.59 58.252 265.474 57.784C264.358 57.316 263.458 56.578 262.774 55.57C262.126 54.526 261.802 53.176 261.802 51.52V35.266H258.076V29.704H261.802V20.524H269.038V29.704H274.978V35.266H269.038V49.09C269.038 50.062 269.29 50.764 269.794 51.196C270.334 51.628 270.982 51.844 271.738 51.844C272.494 51.844 273.232 51.718 273.952 51.466C274.672 51.214 275.248 50.998 275.68 50.818L277.138 56.542ZM291.328 58.54C288.916 58.54 286.612 58.144 284.416 57.352C282.22 56.56 280.33 55.39 278.746 53.842L281.338 49.144C283.03 50.512 284.686 51.52 286.306 52.168C287.926 52.816 289.51 53.14 291.058 53.14C292.462 53.14 293.578 52.888 294.406 52.384C295.27 51.88 295.702 51.124 295.702 50.116C295.702 49.072 295.18 48.37 294.136 48.01C293.092 47.614 291.634 47.128 289.762 46.552C287.674 45.904 285.928 45.238 284.524 44.554C283.12 43.87 282.058 43.042 281.338 42.07C280.654 41.098 280.312 39.838 280.312 38.29C280.312 35.518 281.356 33.304 283.444 31.648C285.532 29.992 288.304 29.164 291.76 29.164C293.776 29.164 295.684 29.488 297.484 30.136C299.284 30.748 300.922 31.756 302.398 33.16L299.482 37.75C296.71 35.59 294.028 34.51 291.436 34.51C290.284 34.51 289.258 34.726 288.358 35.158C287.494 35.59 287.062 36.346 287.062 37.426C287.062 38.434 287.476 39.154 288.304 39.586C289.168 40.018 290.464 40.486 292.192 40.99C294.424 41.674 296.314 42.34 297.862 42.988C299.446 43.636 300.634 44.464 301.426 45.472C302.254 46.48 302.668 47.848 302.668 49.576C302.668 52.384 301.642 54.58 299.59 56.164C297.538 57.748 294.784 58.54 291.328 58.54ZM307.428 58V50.224H313.368V58H307.428ZM319.719 25.762V18.58H326.955V25.762H319.719ZM319.719 58V29.704H326.955V58H319.719ZM346.55 58.54C343.454 58.54 340.79 57.874 338.558 56.542C336.362 55.174 334.67 53.374 333.482 51.142C332.294 48.91 331.7 46.498 331.7 43.906C331.7 41.278 332.294 38.848 333.482 36.616C334.706 34.384 336.416 32.602 338.612 31.27C340.844 29.902 343.49 29.218 346.55 29.218C349.61 29.218 352.238 29.902 354.434 31.27C356.666 32.602 358.376 34.384 359.564 36.616C360.752 38.848 361.346 41.278 361.346 43.906C361.346 46.498 360.752 48.91 359.564 51.142C358.376 53.374 356.666 55.174 354.434 56.542C352.238 57.874 349.61 58.54 346.55 58.54ZM339.152 43.906C339.152 45.562 339.476 47.038 340.124 48.334C340.772 49.594 341.654 50.584 342.77 51.304C343.886 52.024 345.146 52.384 346.55 52.384C347.918 52.384 349.16 52.024 350.276 51.304C351.392 50.548 352.274 49.54 352.922 48.28C353.606 46.984 353.948 45.508 353.948 43.852C353.948 42.232 353.606 40.792 352.922 39.532C352.274 38.236 351.392 37.228 350.276 36.508C349.16 35.752 347.918 35.374 346.55 35.374C345.146 35.374 343.886 35.752 342.77 36.508C341.654 37.228 340.772 38.236 340.124 39.532C339.476 40.792 339.152 42.25 339.152 43.906Z" fill="#585858"/>
<path d="M34.6418 0H9.5C6.98044 0 4.56408 0.987721 2.78249 2.74587C1.00089 4.50403 0 6.8886 0 9.375V65.625C0 68.1114 1.00089 70.496 2.78249 72.2541C4.56408 74.0123 6.98044 75 9.5 75H47.5C50.0196 75 52.4359 74.0123 54.2175 72.2541C55.9991 70.496 57 68.1114 57 65.625V22.0641C56.9997 20.821 56.4991 19.6289 55.6082 18.75L38 1.37344C37.1094 0.4943 35.9014 0.000265488 34.6418 0V0ZM35.625 16.4062V7.03125L49.875 21.0938H40.375C39.1152 21.0938 37.907 20.5999 37.0162 19.7208C36.1254 18.8417 35.625 17.6495 35.625 16.4062ZM22.0685 35.8406C22.2893 35.6227 22.5515 35.4499 22.84 35.3319C23.1285 35.214 23.4377 35.1533 23.75 35.1533C24.0623 35.1533 24.3715 35.214 24.66 35.3319C24.9485 35.4499 25.2107 35.6227 25.4315 35.8406C25.6523 36.0585 25.8275 36.3172 25.947 36.602C26.0665 36.8867 26.128 37.1918 26.128 37.5C26.128 37.8082 26.0665 38.1133 25.947 38.398C25.8275 38.6828 25.6523 38.9415 25.4315 39.1594L17.6082 46.875L25.4315 54.5906C25.8775 55.0307 26.128 55.6276 26.128 56.25C26.128 56.8724 25.8775 57.4693 25.4315 57.9094C24.9855 58.3495 24.3807 58.5967 23.75 58.5967C23.1193 58.5967 22.5145 58.3495 22.0685 57.9094L12.5685 48.5344C12.3473 48.3167 12.1718 48.058 12.0521 47.7733C11.9324 47.4885 11.8708 47.1833 11.8708 46.875C11.8708 46.5667 11.9324 46.2615 12.0521 45.9767C12.1718 45.692 12.3473 45.4333 12.5685 45.2156L22.0685 35.8406ZM34.9315 35.8406L44.4315 45.2156C44.6527 45.4333 44.8282 45.692 44.9479 45.9767C45.0676 46.2615 45.1292 46.5667 45.1292 46.875C45.1292 47.1833 45.0676 47.4885 44.9479 47.7733C44.8282 48.058 44.6527 48.3167 44.4315 48.5344L34.9315 57.9094C34.4855 58.3495 33.8807 58.5967 33.25 58.5967C32.6193 58.5967 32.0145 58.3495 31.5685 57.9094C31.1225 57.4693 30.872 56.8724 30.872 56.25C30.872 55.6276 31.1225 55.0307 31.5685 54.5906L39.3918 46.875L31.5685 39.1594C31.3477 38.9415 31.1725 38.6828 31.053 38.398C30.9335 38.1133 30.872 37.8082 30.872 37.5C30.872 37.1918 30.9335 36.8867 31.053 36.602C31.1725 36.3172 31.3477 36.0585 31.5685 35.8406C31.7893 35.6227 32.0515 35.4499 32.34 35.3319C32.6285 35.214 32.9377 35.1533 33.25 35.1533C33.5623 35.1533 33.8715 35.214 34.16 35.3319C34.4485 35.4499 34.7107 35.6227 34.9315 35.8406Z" fill="#585858"/>
</svg>
